<?xml version="1.0" encoding="utf-8"?>
<!-- Generator: Adobe Illustrator 16.0.0, SVG Export Plug-In . SVG Version: 6.00 Build 0)  -->
<!DOCTYPE svg PUBLIC "-//W3C//DTD SVG 1.1//EN" "http://www.w3.org/Graphics/SVG/1.1/DTD/svg11.dtd">
<svg version="1.1" id="Calque_1" xmlns="http://www.w3.org/2000/svg" xmlns:xlink="http://www.w3.org/1999/xlink" x="0px" y="0px"
	 width="595.28px" height="355.094px" viewBox="0 0 595.28 355.094" enable-background="new 0 0 595.28 355.094"
	 xml:space="preserve">
<g>
	<path d="M313.044,112.02c0,2.29-0.805,4.203-2.42,5.738c-1.618,1.539-3.845,2.308-6.688,2.308c-2.841,0-5.071-0.769-6.685-2.308
		c-1.619-1.536-2.431-3.449-2.431-5.738s0.812-4.203,2.431-5.738c1.614-1.541,3.844-2.307,6.685-2.307
		c2.843,0,5.069,0.766,6.688,2.307C312.239,107.817,313.044,109.73,313.044,112.02z M313.164,151.717c0,2.287-0.81,4.197-2.43,5.738
		c-1.615,1.536-3.845,2.308-6.678,2.308c-2.841,0-5.071-0.772-6.687-2.308c-1.617-1.541-2.43-3.451-2.43-5.738
		c0-2.29,0.813-4.203,2.43-5.741c1.616-1.539,3.846-2.308,6.687-2.308c2.833,0,5.063,0.769,6.678,2.308
		C312.354,147.514,313.164,149.427,313.164,151.717z"/>
	<path d="M198.398,146.612l-3.724,3.732l6.812,6.82l3.741-3.734c3,2.084,6.464,3.551,10.199,4.238v5.27h9.645v-5.27
		c3.729-0.687,7.188-2.154,10.201-4.238l3.726,3.734l6.821-6.82l-3.734-3.732c2.084-3.005,3.548-6.471,4.238-10.198h5.265v-9.643
		h-5.265c-0.69-3.736-2.154-7.19-4.238-10.203l3.734-3.729l-6.821-6.824l-3.726,3.732c-3.013-2.076-6.472-3.545-10.201-4.236v-5.265
		h-9.645v5.265c-3.734,0.69-7.198,2.16-10.199,4.236l-3.741-3.732l-6.812,6.824l3.724,3.729c-2.081,3.011-3.538,6.467-4.231,10.203
		h-5.269v9.643h5.269C194.861,140.141,196.318,143.606,198.398,146.612L198.398,146.612z M220.244,114.709
		c9.307,0,16.876,7.577,16.876,16.884c0,9.309-7.569,16.878-16.876,16.878c-9.31,0-16.874-7.569-16.874-16.878
		C203.37,122.286,210.934,114.709,220.244,114.709L220.244,114.709z M220.244,114.709"/>
	<path d="M220.244,182.229h169.989v-0.033c27.369-0.639,49.432-23.087,49.432-50.602c0-27.517-22.063-49.961-49.432-50.608v-0.028
		H220.244c-27.919,0-50.646,22.719-50.646,50.636C169.598,159.513,192.324,182.229,220.244,182.229L220.244,182.229z
		 M430.023,131.593c0,22.604-18.393,40.993-40.992,40.993c-22.603,0-40.991-18.389-40.991-40.993
		c0-22.602,18.389-40.994,40.991-40.994C411.631,90.6,430.023,108.991,430.023,131.593L430.023,131.593z M359.355,90.6
		c-12.687,9.207-20.957,24.151-20.957,40.994c0,16.84,8.271,31.778,20.957,40.993H249.929c12.681-9.215,20.956-24.152,20.956-40.993
		c0-16.843-8.275-31.787-20.956-40.994H359.355z M220.244,90.6c22.606,0,40.993,18.392,40.993,40.994
		c0,22.604-18.386,40.993-40.993,40.993c-22.602,0-40.993-18.389-40.993-40.993C179.25,108.991,197.642,90.6,220.244,90.6
		L220.244,90.6z M220.244,90.6"/>
	<path d="M384.214,100.247v5.265c-3.733,0.69-7.188,2.16-10.2,4.236l-3.74-3.732l-6.816,6.824l3.723,3.729
		c-2.069,3.011-3.538,6.467-4.226,10.203h-5.272v9.643h5.272c0.688,3.727,2.156,7.192,4.226,10.198l-3.723,3.732l6.816,6.82
		l3.74-3.734c3.013,2.084,6.467,3.551,10.2,4.238v5.27h9.638v-5.27c3.727-0.687,7.185-2.154,10.2-4.238l3.731,3.734l6.827-6.82
		l-3.734-3.732c2.07-3.005,3.546-6.471,4.234-10.198h5.268v-9.643h-5.268c-0.688-3.736-2.164-7.19-4.234-10.203l3.734-3.729
		l-6.827-6.824l-3.731,3.732c-3.016-2.076-6.474-3.545-10.2-4.236v-5.265H384.214z M405.908,131.593
		c0,9.309-7.573,16.878-16.877,16.878c-9.311,0-16.882-7.569-16.882-16.878c0-9.307,7.571-16.884,16.882-16.884
		C398.335,114.709,405.908,122.286,405.908,131.593L405.908,131.593z M405.908,131.593"/>
	<g>
		<path d="M106.084,252.257v8.533h2.781c1.854,0,3.176,0.359,3.965,1.072c0.79,0.715,1.185,1.647,1.185,2.801
			c0,1.125-0.395,2.047-1.185,2.761c-0.79,0.716-2.112,1.072-3.965,1.072H97.175c-1.854,0-3.176-0.356-3.966-1.072
			c-0.789-0.713-1.184-1.645-1.184-2.799c0-1.128,0.402-2.048,1.205-2.763c0.802-0.713,2.116-1.072,3.945-1.072h1.205v-30.146
			h-1.205c-1.854,0-3.176-0.356-3.966-1.072c-0.789-0.713-1.184-1.645-1.184-2.799c0-1.151,0.395-2.086,1.184-2.802
			c0.79-0.713,2.111-1.069,3.966-1.069l11.691,0.038c1.854,0,3.176,0.351,3.965,1.052s1.185,1.63,1.185,2.781
			c0,1.154-0.395,2.086-1.185,2.799c-0.79,0.716-2.112,1.072-3.965,1.072h-2.781v11.429l13.682-11.767
			c-0.802-0.576-1.353-1.113-1.653-1.615s-0.451-1.116-0.451-1.844c0-1.176,0.395-2.129,1.184-2.855
			c0.79-0.725,2.112-1.09,3.966-1.09l7.854,0.038c1.854,0,3.177,0.351,3.966,1.052c0.79,0.701,1.185,1.63,1.185,2.781
			c0,1.128-0.395,2.056-1.185,2.781c-0.789,0.729-2.022,1.09-3.701,1.09l-13.835,12.104c2.583,1.479,5.008,3.736,7.275,6.767
			c2.269,3.033,4.279,6.791,6.034,11.276h2.068c1.829,0,3.138,0.359,3.927,1.072c0.79,0.715,1.185,1.647,1.185,2.801
			c0,1.125-0.391,2.047-1.167,2.761c-0.777,0.716-2.091,1.072-3.945,1.072h-6.992c-1.605-3.833-3.36-7.493-5.265-10.978
			c-1.554-2.83-3.026-4.89-4.416-6.182c-1.392-1.291-3.052-2.325-4.98-3.102L106.084,252.257z"/>
		<path d="M177.421,256.093h-18.72l-1.879,4.697h1.879c1.854,0,3.176,0.359,3.965,1.072c0.79,0.715,1.185,1.647,1.185,2.801
			c0,1.125-0.395,2.047-1.185,2.761c-0.789,0.716-2.111,1.072-3.965,1.072h-10.374c-1.854,0-3.176-0.356-3.965-1.072
			c-0.79-0.713-1.185-1.645-1.185-2.799s0.413-2.094,1.241-2.819c0.828-0.727,2.193-1.065,4.098-1.017l12.103-30.146h-5.038
			c-1.854,0-3.176-0.356-3.966-1.072c-0.789-0.713-1.181-1.645-1.181-2.799c0-1.151,0.392-2.086,1.181-2.802
			c0.79-0.713,2.112-1.069,3.966-1.069l16.652,0.038l15.338,37.851c1.803,0,2.995,0.201,3.571,0.604
			c1.151,0.825,1.73,1.915,1.73,3.27c0,1.125-0.391,2.047-1.167,2.761c-0.776,0.716-2.09,1.072-3.945,1.072h-10.376
			c-1.855,0-3.176-0.356-3.966-1.072c-0.79-0.713-1.185-1.645-1.185-2.799c0-1.128,0.395-2.048,1.185-2.763
			c0.79-0.713,2.111-1.072,3.966-1.072h1.879L177.421,256.093z M174.228,248.386l-6.202-15.261l-6.24,15.261H174.228z"/>
		<path d="M210.645,266.543c-0.678,0.802-1.223,1.314-1.636,1.541c-0.412,0.224-0.922,0.336-1.523,0.336
			c-1.176,0-2.124-0.393-2.837-1.182c-0.713-0.79-1.072-2.099-1.072-3.93v-5.186c0-1.854,0.359-3.176,1.072-3.965
			c0.713-0.79,1.661-1.185,2.837-1.185c0.902,0,1.662,0.237,2.275,0.713c0.614,0.477,1.085,1.274,1.411,2.387
			c0.324,1.116,0.662,1.875,1.014,2.274c0.726,0.777,2.017,1.567,3.872,2.369c1.854,0.802,3.884,1.202,6.09,1.202
			c3.433,0,6.252-0.802,8.458-2.404c1.403-0.978,2.104-2.18,2.104-3.609c0-0.952-0.338-1.849-1.013-2.687
			c-0.677-0.841-1.78-1.536-3.309-2.086c-1.003-0.376-3.245-0.891-6.729-1.543c-4.209-0.774-7.391-1.714-9.546-2.817
			c-2.157-1.103-3.861-2.656-5.114-4.663c-1.253-2.004-1.88-4.172-1.88-6.502c0-3.683,1.543-6.91,4.625-9.679
			c3.081-2.768,7.091-4.154,12.027-4.154c1.982,0,3.815,0.219,5.509,0.657c1.691,0.441,3.225,1.11,4.604,2.012
			c1.001-0.979,2.005-1.467,3.006-1.467c1.128,0,2.051,0.395,2.763,1.184c0.713,0.79,1.072,2.099,1.072,3.93v5.787
			c0,1.856-0.359,3.176-1.072,3.965c-0.712,0.79-1.635,1.185-2.763,1.185c-0.953,0-1.778-0.288-2.481-0.863
			c-0.55-0.425-0.965-1.278-1.24-2.557c-0.276-1.279-0.627-2.193-1.052-2.743c-0.729-0.952-1.819-1.755-3.27-2.407
			c-1.455-0.649-3.133-0.976-5.038-0.976c-2.781,0-4.979,0.645-6.597,1.937c-1.615,1.291-2.425,2.636-2.425,4.039
			c0,0.953,0.332,1.875,0.996,2.764c0.665,0.888,1.636,1.583,2.914,2.085c0.852,0.352,3.253,0.915,7.198,1.691
			c3.948,0.777,6.979,1.63,9.098,2.558c2.116,0.927,3.876,2.381,5.283,4.36c1.4,1.98,2.103,4.335,2.103,7.065
			c0,3.811-1.339,6.857-4.021,9.136c-3.559,3.005-8.094,4.511-13.609,4.511c-2.129,0-4.202-0.257-6.219-0.772
			C214.51,268.341,212.549,267.569,210.645,266.543z"/>
		<path d="M264.541,266.543c-0.677,0.802-1.223,1.314-1.636,1.541c-0.412,0.224-0.921,0.336-1.522,0.336
			c-1.177,0-2.125-0.393-2.838-1.182c-0.713-0.79-1.072-2.099-1.072-3.93v-5.186c0-1.854,0.359-3.176,1.072-3.965
			s1.661-1.185,2.838-1.185c0.901,0,1.66,0.237,2.274,0.713c0.613,0.477,1.084,1.274,1.41,2.387
			c0.324,1.116,0.663,1.875,1.015,2.274c0.726,0.777,2.017,1.567,3.872,2.369c1.854,0.802,3.883,1.202,6.089,1.202
			c3.433,0,6.253-0.802,8.458-2.404c1.404-0.978,2.104-2.18,2.104-3.609c0-0.952-0.339-1.849-1.015-2.687
			c-0.677-0.841-1.78-1.536-3.308-2.086c-1.004-0.376-3.245-0.891-6.729-1.543c-4.21-0.774-7.392-1.714-9.546-2.817
			c-2.158-1.103-3.862-2.656-5.115-4.663c-1.253-2.004-1.879-4.172-1.879-6.502c0-3.683,1.543-6.91,4.625-9.679
			c3.082-2.768,7.091-4.154,12.027-4.154c1.981,0,3.815,0.219,5.509,0.657c1.691,0.441,3.225,1.11,4.605,2.012
			c1.001-0.979,2.004-1.467,3.005-1.467c1.128,0,2.05,0.395,2.764,1.184c0.712,0.79,1.072,2.099,1.072,3.93v5.787
			c0,1.856-0.359,3.176-1.072,3.965c-0.713,0.79-1.635,1.185-2.764,1.185c-0.952,0-1.778-0.288-2.481-0.863
			c-0.55-0.425-0.965-1.278-1.24-2.557c-0.275-1.279-0.627-2.193-1.052-2.743c-0.729-0.952-1.819-1.755-3.27-2.407
			c-1.455-0.649-3.133-0.976-5.038-0.976c-2.781,0-4.979,0.645-6.597,1.937c-1.615,1.291-2.425,2.636-2.425,4.039
			c0,0.953,0.331,1.875,0.996,2.764c0.665,0.888,1.635,1.583,2.914,2.085c0.851,0.352,3.252,0.915,7.197,1.691
			c3.948,0.777,6.979,1.63,9.098,2.558c2.116,0.927,3.876,2.381,5.283,4.36c1.4,1.98,2.104,4.335,2.104,7.065
			c0,3.811-1.341,6.857-4.023,9.136c-3.558,3.005-8.094,4.511-13.608,4.511c-2.13,0-4.203-0.257-6.22-0.772
			C268.406,268.341,266.445,267.569,264.541,266.543z"/>
		<path d="M321.778,249.476v11.314h19.659v-4.172c0-1.854,0.356-3.176,1.072-3.965c0.715-0.79,1.648-1.185,2.799-1.185
			c1.128,0,2.051,0.395,2.766,1.185c0.715,0.789,1.07,2.111,1.07,3.965v11.879h-36.272c-1.857,0-3.177-0.356-3.966-1.072
			c-0.79-0.713-1.185-1.645-1.185-2.799c0-1.128,0.4-2.048,1.201-2.763c0.804-0.713,2.117-1.072,3.949-1.072h1.201v-30.146h-1.201
			c-1.857,0-3.177-0.356-3.966-1.072c-0.79-0.713-1.185-1.645-1.185-2.799c0-1.151,0.395-2.086,1.185-2.802
			c0.789-0.713,2.108-1.069,3.966-1.069l34.581,0.038v11.726c0,1.831-0.353,3.14-1.053,3.93c-0.702,0.787-1.629,1.181-2.781,1.181
			c-1.151,0-2.087-0.387-2.801-1.163c-0.715-0.777-1.071-2.092-1.071-3.948v-4.022h-17.969v11.128h6.767
			c0-2.004,0.188-3.296,0.563-3.872c0.775-1.228,1.88-1.844,3.309-1.844c1.127,0,2.047,0.395,2.763,1.184
			c0.713,0.79,1.073,2.111,1.073,3.966v8.871c0,1.681-0.201,2.806-0.604,3.385c-0.802,1.176-1.879,1.765-3.231,1.765
			c-1.429,0-2.533-0.614-3.309-1.841c-0.376-0.576-0.563-1.88-0.563-3.91H321.778z"/>
		<path d="M387.33,230.644v30.146h5.185c1.854,0,3.176,0.359,3.965,1.072c0.79,0.715,1.185,1.647,1.185,2.801
			c0,1.125-0.395,2.047-1.185,2.761c-0.789,0.716-2.11,1.072-3.965,1.072h-18.043c-1.854,0-3.176-0.356-3.966-1.072
			c-0.788-0.713-1.184-1.645-1.184-2.799c0-1.128,0.396-2.048,1.184-2.763c0.79-0.713,2.111-1.072,3.966-1.072h5.149v-30.146h-8.343
			v7.292c0,1.856-0.356,3.176-1.072,3.966c-0.714,0.79-1.648,1.185-2.801,1.185c-1.126,0-2.049-0.395-2.763-1.185
			c-0.715-0.79-1.073-2.109-1.073-3.966v-15.034l39.922,0.038v14.996c0,1.856-0.356,3.176-1.071,3.966
			c-0.713,0.79-1.649,1.185-2.8,1.185c-1.128,0-2.051-0.395-2.763-1.185c-0.714-0.79-1.073-2.109-1.073-3.966v-7.292H387.33z"/>
		<path d="M441.226,230.644v30.146h5.185c1.854,0,3.177,0.359,3.965,1.072c0.79,0.715,1.185,1.647,1.185,2.801
			c0,1.125-0.395,2.047-1.185,2.761c-0.788,0.716-2.11,1.072-3.965,1.072h-18.043c-1.854,0-3.176-0.356-3.965-1.072
			c-0.789-0.713-1.184-1.645-1.184-2.799c0-1.128,0.395-2.048,1.184-2.763c0.789-0.713,2.11-1.072,3.965-1.072h5.15v-30.146h-8.344
			v7.292c0,1.856-0.356,3.176-1.072,3.966c-0.713,0.79-1.648,1.185-2.8,1.185c-1.127,0-2.05-0.395-2.763-1.185
			c-0.716-0.79-1.072-2.109-1.072-3.966v-15.034l39.92,0.038v14.996c0,1.856-0.356,3.176-1.071,3.966
			c-0.712,0.79-1.649,1.185-2.799,1.185c-1.129,0-2.051-0.395-2.763-1.185c-0.715-0.79-1.073-2.109-1.073-3.966v-7.292H441.226z"/>
		<path d="M483.467,249.476v11.314h19.659v-4.172c0-1.854,0.356-3.176,1.072-3.965c0.713-0.79,1.646-1.185,2.799-1.185
			c1.13,0,2.051,0.395,2.764,1.185c0.716,0.789,1.072,2.111,1.072,3.965v11.879H474.56c-1.857,0-3.176-0.356-3.965-1.072
			c-0.79-0.713-1.186-1.645-1.186-2.799c0-1.128,0.4-2.048,1.201-2.763c0.804-0.713,2.118-1.072,3.949-1.072h1.201v-30.146h-1.201
			c-1.857,0-3.176-0.356-3.965-1.072c-0.79-0.713-1.186-1.645-1.186-2.799c0-1.151,0.396-2.086,1.186-2.802
			c0.789-0.713,2.107-1.069,3.965-1.069l34.583,0.038v11.726c0,1.831-0.352,3.14-1.055,3.93c-0.701,0.787-1.628,1.181-2.781,1.181
			c-1.152,0-2.086-0.387-2.801-1.163c-0.715-0.777-1.071-2.092-1.071-3.948v-4.022h-17.968v11.128h6.767
			c0-2.004,0.189-3.296,0.563-3.872c0.776-1.228,1.88-1.844,3.31-1.844c1.128,0,2.046,0.395,2.763,1.184
			c0.714,0.79,1.073,2.111,1.073,3.966v8.871c0,1.681-0.202,2.806-0.605,3.385c-0.801,1.176-1.879,1.765-3.23,1.765
			c-1.43,0-2.533-0.614-3.31-1.841c-0.373-0.576-0.563-1.88-0.563-3.91H483.467z"/>
	</g>
</g>
</svg>
